<?xml version="1.0" encoding="UTF-8"?><svg xmlns="http://www.w3.org/2000/svg" viewBox="0 0 24 24"><defs><style>.e{fill:none;}.f{fill-rule:evenodd;}</style></defs><g id="a"/><g id="b"><g id="c"><path id="d" class="e" d="M24,24H0V0H24V24Z"/><path class="f" d="M17.29,15.88c.39,.39,.39,1.02,0,1.41-.39,.39-1.02,.39-1.41,0l-3.88-3.88-3.88,3.88c-.39,.39-1.02,.39-1.41,0-.39-.39-.39-1.02,0-1.41l3.88-3.88-3.88-3.88c-.39-.39-.39-1.02,0-1.41,.39-.39,1.02-.39,1.41,0l3.88,3.88,3.88-3.88c.39-.39,1.02-.39,1.41,0,.39,.39,.39,1.02,0,1.41l-3.88,3.88,3.88,3.88Z"/></g></g></svg>