<svg width="93" height="91" viewBox="0 0 93 91" fill="none" xmlns="http://www.w3.org/2000/svg">
<g clip-path="url(#clip0_196_243)">
<path d="M12.869 26.1388C19.9764 26.1388 25.738 20.2874 25.738 13.0694C25.738 5.85137 19.9764 0 12.869 0C5.76166 0 0 5.85137 0 13.0694C0 20.2874 5.76166 26.1388 12.869 26.1388Z" fill="white"/>
<path d="M80.131 26.1388C87.2383 26.1388 93 20.2874 93 13.0694C93 5.85137 87.2383 0 80.131 0C73.0236 0 67.262 5.85137 67.262 13.0694C67.262 20.2874 73.0236 26.1388 80.131 26.1388Z" fill="white"/>
<path d="M47.7075 91C46.7277 91.0398 45.75 90.8783 44.8331 90.525C43.9163 90.1717 43.0793 89.6339 42.3722 88.944C41.6651 88.254 41.1024 87.4261 40.7181 86.5099C40.3338 85.5937 40.1357 84.608 40.1357 83.6122C40.1357 82.6163 40.3338 81.6307 40.7181 80.7145C41.1024 79.7983 41.6651 78.9704 42.3722 78.2804C43.0793 77.5905 43.9163 77.0527 44.8331 76.6993C45.75 76.346 46.7277 76.1845 47.7075 76.2243C61.5799 76.2243 72.8505 65.5603 72.8505 52.5264C72.8505 50.5655 73.6176 48.6848 74.983 47.2982C76.3483 45.9117 78.2 45.1327 80.1308 45.1327C82.0617 45.1327 83.9135 45.9117 85.2789 47.2982C86.6442 48.6848 87.4114 50.5655 87.4114 52.5264C87.4114 73.7242 69.5954 91 47.7075 91Z" fill="url(#paint0_linear_196_243)"/>
<path d="M45.2806 91C23.3928 91 5.61182 73.7242 5.61182 52.4909C5.68708 50.5827 6.48643 48.7781 7.84245 47.4551C9.19846 46.132 11.0061 45.3931 12.8865 45.3931C14.7669 45.3931 16.5744 46.132 17.9304 47.4551C19.2864 48.7781 20.0858 50.5827 20.161 52.4909C20.161 65.5247 31.4432 76.1888 45.304 76.1888C46.2838 76.1489 47.2615 76.3105 48.1784 76.6639C49.0952 77.0172 49.9322 77.5549 50.6393 78.2448C51.3464 78.9348 51.9091 79.7627 52.2934 80.6789C52.6777 81.5951 52.8758 82.5808 52.8758 83.5767C52.8758 84.5725 52.6777 85.5581 52.2934 86.4743C51.9091 87.3905 51.3464 88.2184 50.6393 88.9084C49.9322 89.5984 49.0952 90.1362 48.1784 90.4895C47.2615 90.8428 46.2838 91.0043 45.304 90.9645L45.2806 91Z" fill="white"/>
</g>
<defs>
<linearGradient id="paint0_linear_196_243" x1="51.2777" y1="94.2347" x2="80.6017" y2="44.2335" gradientUnits="userSpaceOnUse">
<stop stop-color="white" stop-opacity="0"/>
<stop offset="0.83" stop-color="white"/>
</linearGradient>
<clipPath id="clip0_196_243">
<rect width="93" height="91" fill="white"/>
</clipPath>
</defs>
</svg>
