<?xml version="1.0" encoding="UTF-8"?><svg xmlns="http://www.w3.org/2000/svg" viewBox="0 0 76 24"><defs></defs><g id="a"/><g id="b"><g id="c"><rect class="d" width="76" height="24"/><path d="M1,14.06V5.71c0-1.05,.57-1.66,1.54-1.66s1.54,.61,1.54,1.66V13.75c0,1.94,1.11,3.22,3.09,3.22s3.08-1.27,3.08-3.22V5.71c0-1.05,.57-1.66,1.54-1.66s1.54,.61,1.54,1.66V14.06c0,3.34-2.39,5.61-6.16,5.61S1,17.4,1,14.06Zm14.81-5.98c0-.95,.72-1.69,1.64-1.69s1.64,.75,1.64,1.69-.73,1.69-1.64,1.69-1.64-.76-1.64-1.69Zm0,7.51c0-.95,.72-1.69,1.64-1.69s1.64,.75,1.64,1.69-.73,1.69-1.64,1.69-1.64-.76-1.64-1.69Zm5.57,1.17c-.1-.27-.16-.57-.16-.85,0-.84,.56-1.4,1.36-1.4,.63,0,1.05,.25,1.42,.93,.48,1.16,1.63,1.68,3.04,1.68,1.65,0,2.77-.82,2.77-1.93,0-1-.69-1.57-2.54-1.95l-1.56-.32c-2.94-.6-4.37-2.05-4.37-4.31,0-2.77,2.34-4.61,5.62-4.61,2.69,0,4.72,1.17,5.37,3.14,.07,.21,.11,.43,.11,.7,0,.76-.53,1.27-1.32,1.27-.69,0-1.12-.28-1.47-.93-.49-1.14-1.44-1.62-2.7-1.62-1.52,0-2.53,.74-2.53,1.85,0,.93,.7,1.51,2.45,1.87l1.55,.33c3.12,.64,4.46,1.93,4.46,4.23,0,2.96-2.25,4.83-5.92,4.83-3.04,0-4.99-1.25-5.58-2.91h0Zm12.72-2.92c0-3.62,2.05-5.92,5.28-5.92s5.18,2.19,5.18,5.24c0,.85-.47,1.33-1.29,1.33h-6.24v.14c0,1.67,.98,2.76,2.49,2.76,1.09,0,1.8-.38,2.61-1.36,.32-.34,.58-.45,.97-.45,.64,0,1.16,.42,1.16,1.12,0,.24-.07,.49-.2,.75-.72,1.39-2.42,2.21-4.53,2.21-3.42,0-5.42-2.17-5.42-5.82h0Zm7.59-1.23c-.06-1.47-.98-2.43-2.28-2.43s-2.25,.99-2.35,2.43h4.64Zm4.46,5.43V5.64c0-1.05,.62-1.61,1.49-1.61s1.49,.56,1.49,1.61v12.41c0,1.05-.61,1.6-1.49,1.6s-1.49-.55-1.49-1.6Zm5.06,0V5.64c0-1.05,.62-1.61,1.49-1.61s1.49,.56,1.49,1.61v12.41c0,1.05-.61,1.6-1.49,1.6s-1.49-.55-1.49-1.6Zm4.59-4.2c0-3.62,2.05-5.92,5.28-5.92s5.18,2.19,5.18,5.24c0,.85-.47,1.33-1.29,1.33h-6.24v.14c0,1.67,.98,2.76,2.49,2.76,1.09,0,1.8-.38,2.61-1.36,.32-.34,.58-.45,.97-.45,.64,0,1.16,.42,1.16,1.12,0,.24-.07,.49-.2,.75-.72,1.39-2.42,2.21-4.53,2.21-3.41,0-5.42-2.17-5.42-5.82h0Zm7.59-1.23c-.06-1.47-.98-2.43-2.28-2.43s-2.25,.99-2.35,2.43h4.64Zm4.39,5.43V9.47c0-.98,.58-1.54,1.44-1.54s1.41,.57,1.41,1.54v.74h.06c.28-1.4,1.18-2.23,2.27-2.23,.4,0,.71,.1,.93,.28,.28,.23,.43,.61,.43,1.13,0,.48-.14,.85-.43,1.1-.28,.25-.71,.39-1.29,.4-1.36,.02-1.83,.81-1.83,2.14v5c0,1.02-.58,1.6-1.49,1.6s-1.49-.58-1.49-1.6h0Z"/></g></g></svg>