<?xml version="1.0" encoding="utf-8"?>
<!-- Generator: Adobe Illustrator 25.4.5, SVG Export Plug-In . SVG Version: 6.00 Build 0)  -->
<svg version="1.1" id="레이어_1" xmlns="http://www.w3.org/2000/svg" xmlns:xlink="http://www.w3.org/1999/xlink" x="0px"
	 y="0px" viewBox="0 0 320 688" style="enable-background:new 0 0 320 688;" xml:space="preserve">
<path d="M308,172L308,172c0.4,5.9,5.6,10.7,12,10.7V680v8h-8c0-4.4-3.6-8-8-8c-4.4,0-8,3.6-8,8h-10c0-4.4-3.6-8-8-8
	c-4.4,0-8,3.6-8,8h-10c0-4.4-3.6-8-8-8c-4.4,0-8,3.6-8,8h-10c0-4.4-3.6-8-8-8c-4.4,0-8,3.6-8,8h-10c0-4.4-3.6-8-8-8
	c-4.4,0-8,3.6-8,8h-10c0-4.4-3.6-8-8-8c-4.4,0-8,3.6-8,8h-10c0-4.4-3.6-8-8-8c-4.4,0-8,3.6-8,8h-10c0-4.4-3.6-8-8-8
	c-4.4,0-8,3.6-8,8h-10c0-4.4-3.6-8-8-8c-4.4,0-8,3.6-8,8H78c0-4.4-3.6-8-8-8s-8,3.6-8,8H52c0-4.4-3.6-8-8-8s-8,3.6-8,8H26
	c0-4.4-3.6-8-8-8s-8,3.6-8,8H0v-8V182.7c6.4,0,11.6-4.7,12-10.7h0c0-6.6-5.4-12-12-12V12C0,5.4,5.4,0,12,0h296c6.6,0,12,5.4,12,12
	v148C313.4,160,308,165.4,308,172z"/>
</svg>
