<?xml version="1.0" encoding="utf-8"?>
<!-- Generator: Adobe Illustrator 26.2.1, SVG Export Plug-In . SVG Version: 6.00 Build 0)  -->
<svg version="1.1" id="레이어_1" xmlns="http://www.w3.org/2000/svg" xmlns:xlink="http://www.w3.org/1999/xlink" x="0px"
	 y="0px" viewBox="0 0 504 960" style="enable-background:new 0 0 504 960;" xml:space="preserve">
<path d="M494,152c0,5.3,4.3,9.7,10,10.5V952v8h-10c0-4.4-3.6-8-8-8s-8,3.6-8,8h-10c0-4.4-3.6-8-8-8s-8,3.6-8,8h-10c0-4.4-3.6-8-8-8
	s-8,3.6-8,8h-10c0-4.4-3.6-8-8-8s-8,3.6-8,8h-10c0-4.4-3.6-8-8-8s-8,3.6-8,8h-10c0-4.4-3.6-8-8-8s-8,3.6-8,8h-10c0-4.4-3.6-8-8-8
	s-8,3.6-8,8h-10c0-4.4-3.6-8-8-8s-8,3.6-8,8h-10c0-4.4-3.6-8-8-8s-8,3.6-8,8h-10c0-4.4-3.6-8-8-8s-8,3.6-8,8h-10c0-4.4-3.6-8-8-8
	s-8,3.6-8,8h-10c0-4.4-3.6-8-8-8s-8,3.6-8,8h-10c0-4.4-3.6-8-8-8s-8,3.6-8,8h-10c0-4.4-3.6-8-8-8s-8,3.6-8,8h-10c0-4.4-3.6-8-8-8
	s-8,3.6-8,8h-10c0-4.4-3.6-8-8-8s-8,3.6-8,8H78c0-4.4-3.6-8-8-8s-8,3.6-8,8H52c0-4.4-3.6-8-8-8s-8,3.6-8,8H26c0-4.4-3.6-8-8-8
	s-8,3.6-8,8H0v-8V162.7c6.6,0,12-4.8,12-10.7c0-6.6-5.4-12-12-12V12C0,5.4,5.4,0,12,0h480c6.6,0,12,5.4,12,12v128.2
	C498.3,141.1,494,146.1,494,152z"/>
</svg>
