<?xml version="1.0" encoding="UTF-8"?><svg xmlns="http://www.w3.org/2000/svg" viewBox="0 0 24 24"><defs><style>.d{fill:none;}.e{fill-rule:evenodd;}</style></defs><g id="a"/><g id="b"><g id="c"><rect class="d" width="24" height="24"/><path class="e" d="M13,9v3c0,.55-.45,1-1,1s-1-.45-1-1v-3c0-.55,.45-1,1-1s1,.45,1,1Zm-1,5c-.55,0-1,.45-1,1s.45,1,1,1,1-.45,1-1-.45-1-1-1Zm8-2c0,4.42-3.58,8-8,8s-8-3.58-8-8S7.58,4,12,4s8,3.58,8,8Zm-2,0c0-3.31-2.69-6-6-6s-6,2.69-6,6,2.69,6,6,6,6-2.69,6-6Z"/></g></g></svg>