<?xml version="1.0" encoding="utf-8"?>
<!-- Generator: Adobe Illustrator 25.4.5, SVG Export Plug-In . SVG Version: 6.00 Build 0)  -->
<svg version="1.1" id="레이어_1" xmlns="http://www.w3.org/2000/svg" xmlns:xlink="http://www.w3.org/1999/xlink" x="0px"
	 y="0px" viewBox="0 0 96 96" style="enable-background:new 0 0 96 96;" xml:space="preserve">
<style type="text/css">
	.st0{fill:url(#SVGID_1_);}
</style>
<g>
	<path style="fill: #fff;" d="M14.4,28.6c7.1,0,12.9-5.9,12.9-13.1c0-7.2-5.8-13.1-12.9-13.1C7.3,2.5,1.5,8.4,1.5,15.6C1.5,22.8,7.3,28.6,14.4,28.6z
		 M81.6,28.6c7.1,0,12.9-5.9,12.9-13.1c0-7.2-5.8-13.1-12.9-13.1c-7.1,0-12.9,5.9-12.9,13.1C68.8,22.8,74.5,28.6,81.6,28.6z"/>
	
		<linearGradient id="SVGID_1_" gradientUnits="userSpaceOnUse" x1="52.4275" y1="-2.5235" x2="81.7503" y2="47.4756" gradientTransform="matrix(1 0 0 -1 0 94)">
		<stop  offset="0" style="stop-color:#fff; stop-opacity:0"/>
		<stop  offset="0.83" style="stop-color:#fff"/>
	</linearGradient>
	<path class="st0" d="M49.2,93.5c-1,0-2-0.1-2.9-0.5c-0.9-0.4-1.8-0.9-2.5-1.6c-0.7-0.7-1.3-1.5-1.7-2.4s-0.6-1.9-0.6-2.9
		c0-1,0.2-2,0.6-2.9s0.9-1.7,1.7-2.4c0.7-0.7,1.5-1.2,2.5-1.6c0.9-0.4,1.9-0.5,2.9-0.5c13.9,0,25.1-10.7,25.1-23.7
		c0-2,0.8-3.8,2.1-5.2c1.4-1.4,3.2-2.2,5.1-2.2c1.9,0,3.8,0.8,5.1,2.2c1.4,1.4,2.1,3.3,2.1,5.2C88.9,76.2,71.1,93.5,49.2,93.5z"/>
	<path style="fill: #fff;" d="M46.8,93.5C24.9,93.5,7.1,76.2,7.1,55c0.1-1.9,0.9-3.7,2.2-5c1.4-1.3,3.2-2.1,5-2.1c1.9,0,3.7,0.7,5,2.1
		c1.4,1.3,2.2,3.1,2.2,5c0,13,11.3,23.7,25.1,23.7c1,0,2,0.1,2.9,0.5c0.9,0.4,1.8,0.9,2.5,1.6c0.7,0.7,1.3,1.5,1.7,2.4
		s0.6,1.9,0.6,2.9c0,1-0.2,2-0.6,2.9c-0.4,0.9-0.9,1.7-1.7,2.4c-0.7,0.7-1.5,1.2-2.5,1.6C48.8,93.3,47.8,93.5,46.8,93.5L46.8,93.5z"
		/>
</g>
</svg>
