<?xml version="1.0" encoding="UTF-8"?><svg xmlns="http://www.w3.org/2000/svg" viewBox="0 0 24 24"><defs><style>.d{fill:none;}</style></defs><g id="a"/><g id="b"><g id="c"><rect class="d" width="24" height="24"/><path d="M12,4c-4.42,0-8,3.58-8,8s3.58,8,8,8,8-3.58,8-8-3.58-8-8-8Zm0,14c-3.31,0-6-2.69-6-6s2.69-6,6-6,6,2.69,6,6-2.69,6-6,6Zm3.47-3.98c-.28,.48-.89,.64-1.37,.37l-2.6-1.5c-.06-.04-.1-.09-.16-.14-.03-.02-.05-.04-.08-.07-.06-.06-.1-.13-.14-.2-.03-.05-.05-.09-.07-.15-.02-.06-.03-.12-.04-.18,0-.05-.03-.1-.03-.15v-3c0-.55,.45-1,1-1s1,.45,1,1v2.44l2.1,1.21c.48,.28,.64,.89,.37,1.37Z"/></g></g></svg>