<?xml version="1.0" encoding="UTF-8"?><svg xmlns="http://www.w3.org/2000/svg" viewBox="0 0 24 24"><defs><style>.d{fill:none;}.e{fill-rule:evenodd;}</style></defs><g id="a"/><g id="b"><g id="c"><rect class="d" width="24" height="24"/><path class="e" d="M4.25,6.76H13.75c.6,0,1.1,.42,1.22,.99h2.16c.38,0,.72,.21,.89,.55l1.72,3.45v3.5h-1.5c0,1.1-.9,2-2,2s-2-.9-2-2h-4c0,1.1-.9,2-2,2s-2-.9-2-2h-1.5v-3.5h2.75v-1.24h-2.57v-1.25h4.07v-1.25H4.25v-1.25Zm5,8.49c0,.55-.45,1-1,1s-1-.45-1-1,.45-1,1-1,1,.45,1,1Zm8,0c0,.55-.45,1-1,1s-1-.45-1-1,.45-1,1-1,1,.45,1,1Zm-.33-6.17h-2v2.85h3.33l-1.33-2.85Z"/></g></g></svg>