<?xml version="1.0" encoding="UTF-8"?><svg xmlns="http://www.w3.org/2000/svg" viewBox="0 0 24 24"><defs><style>.d{fill:#8b95a1;}</style></defs><g id="a"/><g id="b"><g id="c"><rect class="d" width="24" height="24"/><path d="M18.4,20c.88,0,1.6-.72,1.6-1.6v-5.4c0-.55-.45-1-1-1s-1,.45-1,1v5H6V6h6c.55,0,1-.45,1-1s-.45-1-1-1H5.8c-.99,0-1.8,.81-1.8,1.8v12.2c0,1.1,.9,2,2,2h12.4Zm-.9-14c-.13,0-.26,.05-.36,.15l-6.53,6.53-.24,.95,.95-.24,6.53-6.53c.09-.09,.15-.22,.15-.36s-.05-.26-.15-.36c-.09-.09-.22-.15-.36-.15Zm-1.77-1.27c.47-.47,1.11-.73,1.77-.73s1.3,.26,1.77,.73c.47,.47,.73,1.11,.73,1.77s-.26,1.3-.73,1.77l-6.73,6.73c-.13,.13-.29,.22-.46,.26l-2.83,.71c-.34,.09-.7-.01-.95-.26s-.35-.61-.26-.95l.71-2.83c.04-.18,.13-.34,.26-.46l6.73-6.73Z"/></g></g></svg>