<?xml version="1.0" encoding="UTF-8"?><svg xmlns="http://www.w3.org/2000/svg" viewBox="0 0 24 24"><defs><style>.d{fill:none;}</style></defs><g id="a"/><g id="b"><g id="c"><rect class="d" width="24" height="24"/><path d="M12.62,13.07c0-.25,.04-.47,.1-.65s.19-.37,.38-.53c.21-.2,.41-.4,.59-.59,.18-.2,.33-.41,.44-.63,.11-.23,.17-.48,.17-.77,0-.4-.08-.74-.25-1.03-.17-.28-.41-.5-.73-.64-.32-.15-.7-.22-1.14-.22-.4,0-.77,.07-1.09,.21-.33,.14-.58,.35-.78,.64-.19,.28-.29,.64-.3,1.06h1.29c0-.21,.05-.37,.13-.5,.08-.13,.19-.23,.32-.29,.13-.06,.28-.09,.42-.09,.18,0,.33,.04,.45,.11,.12,.07,.22,.17,.28,.3,.07,.13,.1,.3,.1,.5,0,.18-.03,.33-.1,.47-.07,.14-.16,.27-.28,.4-.12,.12-.25,.26-.4,.4-.19,.18-.34,.35-.45,.53-.11,.17-.19,.36-.24,.57-.05,.21-.07,.46-.07,.76h0v.63h1.17v-.63Zm.18,2.25c0,.19-.07,.35-.2,.48-.13,.13-.31,.2-.53,.2s-.4-.07-.54-.2c-.13-.13-.2-.29-.2-.48s.07-.36,.2-.49c.13-.13,.31-.2,.54-.2s.4,.07,.53,.2c.13,.13,.2,.29,.2,.49Zm-.8-11.32c-4.41,0-8,3.59-8,8s3.59,8,8,8,8-3.59,8-8-3.59-8-8-8Zm0,15c-3.86,0-7-3.14-7-7s3.14-7,7-7,7,3.14,7,7-3.14,7-7,7Z"/></g></g></svg>